<?xml version="1.0" encoding="utf-8"?>
<!-- Generator: Adobe Illustrator 21.0.0, SVG Export Plug-In . SVG Version: 6.00 Build 0)  -->
<svg version="1.1" id="Layer_9_copy_2" xmlns="http://www.w3.org/2000/svg" xmlns:xlink="http://www.w3.org/1999/xlink" x="0px"
	 y="0px" viewBox="0 0 1038 196" style="enable-background:new 0 0 1038 196;" xml:space="preserve">
<style type="text/css">
	.st0{fill:#0F65B5;}
</style>
<g>
	<path class="st0" d="M339.6,11.4H17.8c-5.9,0-10.7,4.8-10.7,10.7v152c0,5.9,4.8,10.7,10.7,10.7h321.8c5.9,0,10.7-4.8,10.7-10.7
		v-152C350.3,16.2,345.5,11.4,339.6,11.4z M121,157.7H96.5l-2.9-8c-7.2,6.9-16.7,10.4-28.5,10.4c-11.9,0-20.7-3.4-26.4-10.1
		c-4.9-5.8-7.4-13.5-7.4-23.2V76.4c0-23.6,15.2-35.3,45.7-35.3c19.1,0,31.5,4,37.1,12c3.8,5.3,5.7,16.2,5.7,32.5H82.1l0.4-12.3
		c0.1-4.4-0.4-8-1.6-11L76,60.3c-4.6,0-7,2.8-7,8.5v62.7c0,6,2.5,9,7.4,9c4.6,0,7-2.9,7-8.8v-19.2h-7.8V96.1H121V157.7z M231,127.4
		c0,23.9-15.1,35.8-45.4,35.8c-30.3,0-45.4-11.9-45.4-35.8V78.5c0-23.9,15.1-35.8,45.4-35.8c30.3,0,45.4,11.9,45.4,35.8V127.4z
		 M318.6,71.7h-22.3v91.2h-37.7V71.7h-22.3v-23h82.3V71.7z"/>
	<path class="st0" d="M203.9,89.2c0-10.1-8.2-18.3-18.4-18.3s-18.4,8.4-18.4,18.5c0,6.2,3.1,12,7.7,15.4l-4.3,34.2h29.8l-4.3-34.2
		C200.9,101.5,203.9,95.3,203.9,89.2z"/>
</g>
<g>
	<path class="st0" d="M385.1,41.6h53.2c20.9,0,31.3,7,31.3,21.1v12.6c0,11.4-8.2,17.1-24.6,17.1l-0.4,0.3
		c18.3,1.3,27.4,8.6,27.4,21.9v16c0,16.7-12,25.1-36,25.1h-51V41.6z M421.6,86h4.1c5.9,0,8.8-2.3,8.8-7V66.8c0-4.7-2.9-7-8.8-7h-4.1
		V86z M421.6,136.6h3.7c6.1,0,9.2-2.4,9.2-7.2v-18.9c0-4.8-3.1-7.2-9.2-7.2h-3.7V136.6z"/>
	<path class="st0" d="M479.9,88.3c0-10.3,3.5-17.8,10.4-22.4c6.4-4.2,16.4-6.2,30.1-6.2c13.5,0,23.5,1.9,30.1,5.8
		c7.5,4.5,11.3,11.8,11.3,21.9v68.5h-35.2v-5.3c-7.1,5.1-14.8,7.7-23.1,7.7c-7.5,0-13.3-1.8-17.4-5.5s-6.1-8.5-6.1-14.5v-12.6
		c0-7,4-12.6,11.9-16.8c1.5-0.9,8.7-3.5,21.7-8c7.9-2.7,11.9-5.8,11.9-9.3V79.6c0-1.4-0.6-2.7-1.8-3.8c-1.2-1.2-2.7-1.8-4.3-1.8
		c-4.2,0-6.3,4.2-6.3,12.5c0-0.4,0.3,3.5,0.8,11.7h-33.8V88.3z M513.7,125.4v9.8c0,3.5,1.8,5.3,5.5,5.3c4.1,0,6.1-1.6,6.1-4.8v-24.5
		C517.6,115.1,513.7,119.8,513.7,125.4z"/>
	<path class="st0" d="M655.6,121.7c0,24.3-13.7,36.5-41.2,36.5c-13.4,0-23.9-2.5-31.5-7.5c-8.1-5.4-12.1-13.3-12.1-23.5V90.7
		c0-10,4-17.8,11.9-23.2c7.5-5.2,17.7-7.8,30.7-7.8c15.7,0,26.7,3.4,33,10.2c5.3,5.8,8,15,8,27.8h-35.2c0-1,0.1-2.7,0.4-5.1
		c0.1-2.1,0.2-3.8,0.2-5.1c0-7-2.2-10.6-6.6-10.6c-4,0-5.9,1.8-5.9,5.4v51.2c0,4.9,2.2,7.4,6.5,7.4c4.8,0,7.3-4.3,7.3-12.8
		c0,0.6-0.2-3-0.6-11h35.2V121.7z"/>
	<path class="st0" d="M661.7,41.6h36.4V95L710.1,62H742l-14.5,37.4l17.8,56.3H710l-11.9-40.8v40.8h-36.4V41.6z"/>
	<path class="st0" d="M774.1,158.2c-16.1,0-24.2-8.3-24.2-25V62h36.4v70.2c0,4.5,1.9,6.7,5.7,6.7c3.4,0,5.1-2.3,5.1-6.9V62h36.4
		v93.7h-36.4v-7.2C792.2,155,784.5,158.2,774.1,158.2z"/>
	<path class="st0" d="M843.7,62h36.4v7.8c7.8-6.8,16.1-10.2,25-10.2c16.4,0,24.6,9.8,24.6,29.3v36.9c0,9.5-1.3,16.6-3.9,21.4
		c-4,7.3-11.3,10.9-21.9,10.9c-8.7,0-16.6-3.5-23.7-10.4v21.8h-36.4V62z M880.2,131c0,5.3,2.2,8,6.6,8c4.4,0,6.6-2.7,6.6-8V84.4
		c0-4.4-2.2-6.6-6.6-6.6c-4.4,0-6.6,2.2-6.6,6.6V131z"/>
	<path class="st0" d="M941.4,69.4c0-20.2,13.9-30.2,41.8-30.2c14.7,0,25.5,2.8,32.1,8.3c6.7,5.5,10,14.1,10,25.8v17
		c0,19.8-9.3,29.8-27.9,29.8c-8.9,0-16-2.7-21.1-8.2v12.2h-33.8V92.6h33.8c0,1.5,0.5,3,1.6,4.5c1.8,1.1,3.5,1.6,5.3,1.6
		c4.5,0,6.8-2.5,6.8-7.4V61.9c0-4.3-2.2-6.4-6.6-6.4c-5.1,0-7.6,4.3-7.6,13c0,1.6,0.1,4.8,0.4,9.6h-35V69.4z M942.6,132.7h33.8v23
		h-33.8V132.7z"/>
</g>
</svg>
